<?xml version="1.0" encoding="iso-8859-1"?>
<!-- Uploaded to: SVG Repo, www.svgrepo.com, Generator: SVG Repo Mixer Tools -->
<svg fill="#000000" height="800px" width="800px" version="1.1" id="Layer_1" xmlns="http://www.w3.org/2000/svg" xmlns:xlink="http://www.w3.org/1999/xlink" 
	 viewBox="0 0 472.615 472.615" xml:space="preserve">
<g>
	<g>
		<path d="M236.308,40.759C105.799,40.759,0,117.58,0,212.342c0,53.876,34.198,101.952,87.693,133.409l-24.219,86.105
			l114.219-53.252c18.742,3.473,38.381,5.319,58.614,5.319c130.509,0,236.308-76.82,236.308-171.581
			C472.615,117.58,366.816,40.759,236.308,40.759z M120.701,243.495c-18.687,0-33.836-15.148-33.836-33.836
			c0-18.686,15.149-33.835,33.836-33.835s33.836,15.149,33.836,33.835C154.537,228.347,139.388,243.495,120.701,243.495z
			 M236.308,243.495c-18.687,0-33.836-15.148-33.836-33.836c0-18.686,15.149-33.835,33.836-33.835
			c18.687,0,33.836,15.149,33.836,33.835C270.144,228.347,254.995,243.495,236.308,243.495z M351.914,243.495
			c-18.687,0-33.836-15.148-33.836-33.836c0-18.686,15.149-33.835,33.836-33.835s33.836,15.149,33.836,33.835
			C385.751,228.347,370.601,243.495,351.914,243.495z"/>
	</g>
</g>
</svg>